# xmcd CD database file
#
# Track frame offsets:
#	150
#	35672
#	64300
#	90365
#	124065
#	139202
#	150012
#	171550
#	218210
#	241825
#
# Disc length: 3636 seconds
#
# Revision: 4
# Processed by: cddbd v1.5.1PL0 Copyright (c) Steve Scherf et al.
# Submitted via: CDex 1.51
#
DISCID=850e320a
DTITLE=Kurt Rosenwinkel - The Enemies of Energy
DYEAR=2000
DGENRE=Jazz
TTITLE0=The Enemies of Energy
TTITLE1=Grant
TTITLE2=Cubism
TTITLE3=Number Ten
TTITLE4=The Polish Song
TTITLE5=Point of View
TTITLE6=Christmas Song
TTITLE7=Dream of the Old
TTITLE8=Synthetics
TTITLE9=Hope and Fear
EXTD=YEAR: 2000
EXTT0=
EXTT1=
EXTT2=
EXTT3=
EXTT4=
EXTT5=
EXTT6=
EXTT7=
EXTT8=
EXTT9=
PLAYORDER=
